<?xml version="1.0" encoding="UTF-8"?>
<!-- Generator: Adobe Illustrator 26.0.1, SVG Export Plug-In . SVG Version: 6.00 Build 0)  -->
<svg xmlns="http://www.w3.org/2000/svg" xmlns:xlink="http://www.w3.org/1999/xlink" version="1.1" id="Capa_1" x="0px" y="0px" viewBox="0 0 512 512" style="enable-background:new 0 0 512 512;" xml:space="preserve" width="512" height="512">
<g>
	<path d="M408.52,0.03H103.41C46.27,0.03,0,46.3,0,103.44v305.18c0,57.08,46.27,103.35,103.41,103.35h305.18   c57.08,0,103.41-46.27,103.41-103.41V103.44C511.94,46.3,465.67,0.03,408.52,0.03z M141.55,405.36   c-6.4,11.2-20.67,14.97-31.87,8.57c-11.2-6.4-14.97-20.67-8.57-31.87l16.64-28.79c18.81-5.83,34.1-1.35,46.2,13.24L141.55,405.36z    M303.32,342.52H91.51c-12.93,0-23.29-10.37-23.29-23.3c0-12.92,10.36-23.29,23.29-23.29h59.38l76.03-131.76l-23.75-41.21   c-6.39-11.2-2.62-25.34,8.58-31.87c11.2-6.4,25.34-2.62,31.87,8.58l10.17,17.98l10.37-17.92c6.4-11.2,20.67-14.97,31.87-8.57   c11.2,6.4,14.97,20.67,8.57,31.86l-99.89,172.91h72.25C300.38,295.93,313.5,323.45,303.32,342.52z M417.42,342.65h-33.66   l22.72,39.41c6.4,11.2,2.62,25.35-8.58,31.87c-11.2,6.4-25.34,2.63-31.87-8.57c-38.26-66.36-67-116.02-86.06-149.1   c-19.52-33.66-5.57-67.45,8.19-78.91c15.29,26.24,38.14,65.85,68.66,118.71h60.6c12.93,0,23.29,10.37,23.29,23.29   C440.71,332.28,430.35,342.65,417.42,342.65z"/>
</g>















</svg>
